<?xml version="1.0" standalone="no"?>
<!DOCTYPE svg PUBLIC "-//W3C//DTD SVG 20010904//EN"
 "http://www.w3.org/TR/2001/REC-SVG-20010904/DTD/svg10.dtd">
<svg version="1.0" xmlns="http://www.w3.org/2000/svg"
 width="300.000000pt" height="300.000000pt" viewBox="0 0 300.000000 300.000000"
 preserveAspectRatio="xMidYMid meet">
<metadata>
Created by potrace 1.14, written by Peter Selinger 2001-2017
</metadata>
<g transform="translate(0.000000,300.000000) scale(0.100000,-0.100000)"
fill="#000000" stroke="none">
<path d="M828 2654 l-668 -334 0 -820 0 -820 670 -335 670 -335 670 335 670
335 0 351 c0 331 -1 351 -17 344 -78 -32 -142 -45 -231 -45 -140 0 -232 30
-326 103 -37 30 -96 102 -96 118 0 5 39 31 86 59 l87 51 46 -49 c57 -62 98
-83 173 -89 69 -7 137 15 168 54 29 38 27 113 -4 150 -26 31 -34 35 -216 121
-146 69 -207 118 -247 200 -24 49 -28 69 -28 142 1 72 5 93 27 135 44 84 146
163 213 165 16 1 -958 499 -975 499 -3 0 -305 -151 -672 -335z m1190 -621 l-3
-458 -28 -61 c-57 -123 -142 -175 -298 -182 -114 -5 -182 11 -255 60 -48 33
-114 109 -114 131 0 11 155 112 172 112 4 0 21 -19 38 -43 39 -54 88 -76 150
-68 55 8 88 38 100 92 5 21 10 227 10 457 l0 417 116 0 115 0 -3 -457z"/>
<path d="M2509 2295 c-52 -28 -64 -130 -22 -177 10 -11 93 -57 186 -102 l167
-81 0 172 0 173 -53 -34 -53 -34 -21 32 c-39 60 -141 85 -204 51z"/>
</g>
</svg>
